<svg version="1.0" xmlns="http://www.w3.org/2000/svg"
 width="128.000000pt" height="128.000000pt" viewBox="0 0 128.000000 128.000000"
 preserveAspectRatio="xMidYMid meet">

<g transform="translate(0.000000,128.000000) scale(0.100000,-0.100000)"
fill="#FFFFFF" stroke="none">
<path d="M560 1100 c-162 -30 -286 -127 -358 -278 -33 -69 -37 -87 -40 -174
-7 -157 39 -272 148 -377 255 -245 688 -129 791 211 27 87 25 247 -4 275 -15
15 -19 15 -31 3 -12 -12 -12 -26 -3 -74 32 -171 -74 -371 -238 -447 -262 -123
-558 33 -607 320 -31 183 71 370 248 453 97 45 210 50 314 14 76 -26 95 -24
88 10 -8 43 -206 84 -308 64z"/>
<path d="M855 800 c-121 -121 -224 -220 -230 -220 -5 0 -37 28 -71 61 -62 61
-94 72 -94 33 0 -25 140 -164 164 -164 15 0 97 76 254 233 128 128 232 237
232 243 0 11 -20 34 -30 34 -3 0 -104 -99 -225 -220z"/>
</g>
</svg>
